<?xml version="1.0" encoding="UTF-8" standalone="no"?>
<svg
   class="icon icon-tabler icon-tabler-brand-paypal"
   width="24"
   height="24"
   viewBox="0 0 24 24"
   stroke-width="2"
   stroke="currentColor"
   fill="none"
   stroke-linecap="round"
   stroke-linejoin="round"
   version="1.1"
   id="svg854"
   sodipodi:docname="paypal.svg"
   inkscape:version="1.1 (c4e8f9e, 2021-05-24)"
   xmlns:inkscape="http://www.inkscape.org/namespaces/inkscape"
   xmlns:sodipodi="http://sodipodi.sourceforge.net/DTD/sodipodi-0.dtd"
   xmlns="http://www.w3.org/2000/svg"
   xmlns:svg="http://www.w3.org/2000/svg">
  <defs
     id="defs858" />
  <sodipodi:namedview
     id="namedview856"
     pagecolor="#ffffff"
     bordercolor="#666666"
     borderopacity="1.0"
     inkscape:pageshadow="2"
     inkscape:pageopacity="0.0"
     inkscape:pagecheckerboard="0"
     showgrid="false"
     inkscape:zoom="8.7705295"
     inkscape:cx="-6.8981012"
     inkscape:cy="26.737268"
     inkscape:window-width="1366"
     inkscape:window-height="742"
     inkscape:window-x="0"
     inkscape:window-y="0"
     inkscape:window-maximized="1"
     inkscape:current-layer="svg854" />
  <path
     stroke="none"
     d="M 0,0 H 22.451784 V 22.451784 H 0 Z"
     fill="none"
     id="path850"
     style="stroke-width:0.935491;stroke-miterlimit:4;stroke-dasharray:none" />
  <path
     d="m 10.129018,12.982171 h 2.338727 c 2.338728,0 4.677455,-2.338728 4.677455,-4.6774551 0,-2.806473 -1.777432,-4.677455 -4.677455,-4.677455 h -5.1452 c -0.4677455,0 -0.935491,0.4677455 -0.935491,0.935491 L 4.516072,17.659626 c 0,0.467745 0.4677455,0.935491 0.935491,0.935491 H 8.0709378 L 9.193527,13.917662 c 0.093549,-0.561295 0.3741964,-0.935491 0.935491,-0.935491 z M 17.1452,7.5563231 c 1.590335,0.935491 2.338728,2.6193749 2.338728,4.4903569 0,2.338727 -2.338728,4.209709 -4.677455,4.209709 h -2.432277 l -0.561294,3.367768 A 0.935491,0.935491 0 0 1 10.877411,20.37255 H 8.3515851 A 0.4677455,0.4677455 0 0 1 7.8838396,19.811255 l 0.1870982,-1.309687"
     id="path852"
     style="stroke-width:1;stroke-miterlimit:4;stroke-dasharray:none" />
</svg>
